<svg data-v-423bf9ae="" xmlns="http://www.w3.org/2000/svg" viewBox="0 0 542 112" class="iconLeft"><!----><!----><!----><g data-v-423bf9ae="" id="08a3abd4-6ace-425d-93bd-b7dfba8426b6" fill="white" transform="matrix(4.731861440741736,0,0,4.731861440741736,127.50739139608143,17.606036628783407)"><path d="M5.29 2.21L3.98 2.21L0.04 11.48L1.20 11.48L2.34 8.79L6.93 8.79L8.06 11.48L9.23 11.48ZM2.74 7.83L4.63 3.30L6.52 7.83ZM13.73 11.59C15.78 11.59 17.12 9.98 17.12 7.98C17.12 5.98 15.78 4.37 13.73 4.37C12.57 4.37 11.75 4.84 11.23 5.60L11.23 4.48L10.18 4.48L10.18 14.25L11.23 14.25L11.23 10.35C11.75 11.10 12.57 11.59 13.73 11.59ZM13.59 5.32C15.15 5.32 16.07 6.54 16.07 7.98C16.07 9.42 15.15 10.64 13.59 10.64C12.04 10.64 11.17 9.42 11.17 7.98C11.17 6.54 12.04 5.32 13.59 5.32ZM21.53 4.37C19.39 4.37 18.06 5.98 18.06 7.98C18.06 9.98 19.39 11.59 21.53 11.59C23.67 11.59 25.00 9.98 25.00 7.98C25.00 5.98 23.67 4.37 21.53 4.37ZM21.53 10.64C19.98 10.64 19.11 9.42 19.11 7.98C19.11 6.54 19.98 5.32 21.53 5.32C23.09 5.32 23.95 6.54 23.95 7.98C23.95 9.42 23.09 10.64 21.53 10.64ZM27.44 1.68L26.39 1.68L26.39 11.48L27.44 11.48ZM30.31 1.68L29.26 1.68L29.26 11.48L30.31 11.48ZM35.17 4.37C33.03 4.37 31.70 5.98 31.70 7.98C31.70 9.98 33.03 11.59 35.17 11.59C37.31 11.59 38.64 9.98 38.64 7.98C38.64 5.98 37.31 4.37 35.17 4.37ZM35.17 10.64C33.61 10.64 32.75 9.42 32.75 7.98C32.75 6.54 33.61 5.32 35.17 5.32C36.72 5.32 37.59 6.54 37.59 7.98C37.59 9.42 36.72 10.64 35.17 10.64ZM43.01 1.68L43.01 11.48L44.06 11.48L44.06 7.45C44.06 6.19 45.01 5.32 46.17 5.32C47.32 5.32 48.13 6.16 48.13 7.43L48.13 11.48L49.18 11.48L49.18 7.41C49.18 5.42 47.82 4.37 46.38 4.37C45.25 4.37 44.56 4.90 44.06 5.57L44.06 1.68ZM53.97 4.37C51.83 4.37 50.50 5.98 50.50 7.98C50.50 9.98 51.83 11.59 53.97 11.59C56.11 11.59 57.44 9.98 57.44 7.98C57.44 5.98 56.11 4.37 53.97 4.37ZM53.97 10.64C52.42 10.64 51.55 9.42 51.55 7.98C51.55 6.54 52.42 5.32 53.97 5.32C55.52 5.32 56.39 6.54 56.39 7.98C56.39 9.42 55.52 10.64 53.97 10.64ZM61.26 4.37C59.46 4.37 58.52 5.11 58.52 6.37C58.52 8.93 63.18 7.84 63.18 9.59C63.18 10.54 61.96 10.70 61.39 10.70C60.03 10.70 59.50 10.00 59.43 9.28L58.34 9.28C58.41 10.51 59.43 11.59 61.38 11.59C63.11 11.59 64.23 10.85 64.23 9.49C64.23 6.86 59.57 7.95 59.57 6.27C59.57 5.59 60.14 5.26 61.24 5.26C62.41 5.26 62.86 5.75 62.94 6.36L64.01 6.36C63.88 5.33 63.11 4.37 61.26 4.37ZM67.38 11.48L67.38 5.40L68.99 5.40L68.99 4.48L67.38 4.48L67.38 1.97L66.33 1.97L66.33 4.48L64.90 4.48L64.90 5.40L66.33 5.40L66.33 11.48ZM70.14 11.48L71.19 11.48L71.19 4.48L70.14 4.48ZM70.10 1.93L70.10 3.30L71.23 3.30L71.23 1.93ZM73.01 4.48L73.01 11.48L74.06 11.48L74.06 7.45C74.06 6.19 75.01 5.32 76.17 5.32C77.32 5.32 78.13 6.16 78.13 7.43L78.13 11.48L79.18 11.48L79.18 7.41C79.18 5.42 77.83 4.37 76.38 4.37C75.25 4.37 74.56 4.90 74.06 5.57L74.06 4.48ZM86.39 4.48L86.39 5.60C85.88 4.84 85.05 4.37 83.89 4.37C81.84 4.37 80.50 5.92 80.50 7.92C80.50 9.93 81.84 11.48 83.89 11.48C85.05 11.48 85.88 10.99 86.39 10.23L86.39 11.20C86.39 12.64 85.69 13.41 84.08 13.41C83.02 13.41 82.32 13.01 82.04 12.32L80.88 12.32C81.27 13.54 82.38 14.36 84.14 14.36C86.24 14.36 87.44 13.27 87.44 11.27L87.44 4.48ZM84.03 10.53C82.47 10.53 81.55 9.37 81.55 7.92C81.55 6.48 82.47 5.32 84.03 5.32C85.55 5.32 86.45 6.48 86.45 7.92C86.45 9.37 85.55 10.53 84.03 10.53Z"></path></g><!----><g data-v-423bf9ae="" id="a8e7df25-2504-40a2-9d1e-01a1c19e1b71" transform="matrix(1.1111111958821616,0,0,1.1111111958821616,-1.019116454696757,0.4444359673390821)" stroke="none" fill="white"><path d="M85.102 75.82s8.129-2.684 5.751-14.886v-.007a.642.642 0 0 0-.005-.037l-.007-.002a1.285 1.285 0 0 0-2.535.304c0 .026.007.051.008.078l-.006.002s-1.402 14.548-13.434 7.625c.001 0 3.51 7.826 10.228 6.923zM14.9 75.82c6.717.903 10.225-6.923 10.225-6.923-12.03 6.923-13.433-7.625-13.433-7.625-.001-.002-.003-.002-.005-.002.002-.027.009-.052.009-.078a1.285 1.285 0 1 0-2.536-.304l-.005.002-.008.037v.007C6.769 73.136 14.9 75.82 14.9 75.82zM15.657 89.886c-.251.015-.502.031-.756.031-4.332 0-8.334-2.136-11.596-5.747a.972.972 0 0 0-1.768.555c0 .156.041.3.105.432l-.001-.002c2.412 6.903 9.585 11.912 18.067 11.912.252 0 .502-.016.753-.023-1.752-1.648-3.45-3.951-4.804-7.158zM98.337 85.386a.96.96 0 0 0 .127-.469.97.97 0 0 0-1.778-.541v-.002c-3.23 3.487-7.161 5.543-11.411 5.543-.383 0-.758-.021-1.134-.056-1.354 3.212-3.05 5.521-4.8 7.17.346.016.694.035 1.042.035 8.379 0 15.481-4.891 17.974-11.667l-.019-.014h-.001z"></path><path d="M96.962 69.544c0-.854-.691-1.544-1.542-1.544-.603 0-1.12.349-1.373.853l-.004-.002c-2.438 5.061-6.066 8.273-10.122 8.273-7.186 0-13.033-10.08-13.281-22.676a7.628 7.628 0 0 0 1.59-11.968c.29-.942.605-1.854.964-2.714a26.542 26.542 0 0 0 3.454-13.123C76.648 11.929 64.728 0 50.026 0 35.323 0 23.404 11.929 23.404 26.644c0 4.697 1.219 9.109 3.352 12.941.383.909.727 1.872 1.034 2.876a7.633 7.633 0 0 0 1.586 11.997c-.25 12.592-6.098 22.666-13.281 22.666-4.011 0-7.604-3.143-10.041-8.107-.058-.117-.117-.234-.174-.353a1.52 1.52 0 0 0-2.775.857c0 .171.035.33.086.482.022.059.05.113.068.173 2.676 8.927 7.176 11.76 10.303 12.368-.045-.251-.092-.504-.134-.765l-.054-.345.024-.028c-.034-1.098.542-2.036 1.46-2.332.192-.063.392-.096.594-.096.978 0 1.907.731 2.297 1.797l.01.005.072.257c.006.021.388 1.345 1.179 2.977.231.015.461.033.695.033 3.585 0 6.936-1.447 9.794-3.958-2.121 3.534-4.785 6.28-7.783 7.964 1.525 1.544 3.583 2.437 5.778 2.437 3.027 0 5.782-1.7 7.18-4.33h.001c1.798-3.637 2.761-9.605 2.761-9.605-.098 1.752.166 5.048-1.146 8.92l-.023.063a9.363 9.363 0 0 1-8.773 6.156 9.314 9.314 0 0 1-7.375-3.617 9.308 9.308 0 0 1-.411-.567 14.85 14.85 0 0 1-.63-.905c-.015-.022-.028-.046-.042-.067a18.725 18.725 0 0 1-.516-.857c-.016-.028-.029-.053-.045-.079a23.408 23.408 0 0 1-.446-.843c-.008-.019-.017-.035-.026-.054a22.442 22.442 0 0 1-1.195-2.903h-.03l-.134-.534c-.233-.727-.885-1.221-1.417-1.046-.431.138-.69.693-.615 1.318l.006.078h.002c.084.524.177 1.029.274 1.522.107.546.226 1.068.349 1.579.035.144.069.288.106.43.051.199.103.396.156.593l.128.448c.059.201.118.403.179.6.081.262.165.521.25.771.052.153.105.299.159.446.058.164.116.324.175.479.055.143.109.285.164.423.067.168.136.334.206.496.049.119.098.238.148.353 1.49 3.379 3.374 5.646 5.246 7.164a17.379 17.379 0 0 0 .943.703 14.482 14.482 0 0 0 1.768 1.041 13.5 13.5 0 0 0 1.554.654c.025.01.052.021.079.028a15.244 15.244 0 0 0 .765.236c.207.058.406.108.593.151.028.006.055.011.082.018.192.042.377.078.546.106l.148.025.045.008a8.672 8.672 0 0 0 1.157.107l.089-.017.261.002c4.042 0 13.92-1.798 19.497-18.141l.206-.589.205.589c5.575 16.343 15.455 18.141 19.495 18.141l.262-.002.091.018c.136-.002.55-.015 1.157-.107l.046-.008.147-.025a8.86 8.86 0 0 0 .551-.108l.078-.016c.192-.046.395-.096.604-.155l.093-.025c.218-.062.443-.134.677-.213.021-.009.042-.015.064-.022.757-.266 1.59-.634 2.457-1.146.017-.009.033-.02.05-.027.281-.169.568-.352.857-.551.017-.013.031-.025.05-.036a15.1 15.1 0 0 0 .887-.671c1.872-1.525 3.756-3.803 5.239-7.197a28.66 28.66 0 0 0 .688-1.75c.043-.123.088-.245.132-.372.087-.257.172-.521.256-.792.064-.201.123-.407.183-.615a32.509 32.509 0 0 0 .282-1.031c.021-.084.04-.168.062-.25.129-.525.25-1.065.363-1.628.107-.528.209-1.07.298-1.636l.006-.078c.077-.625-.183-1.181-.615-1.318-.531-.175-1.184.319-1.415 1.046l-.134.534h-.031a22.15 22.15 0 0 1-.819 2.112l-.002.003c-.12.265-.25.54-.391.825-.009.019-.019.037-.027.056-.135.27-.284.547-.439.828-.017.026-.032.053-.046.078-.159.282-.328.566-.512.848-.015.021-.027.044-.04.065-.196.302-.401.602-.624.894a9.003 9.003 0 0 1-.378.53 9.324 9.324 0 0 1-7.406 3.655 9.361 9.361 0 0 1-8.773-6.156l-.024-.063c-1.142-2.622-1.047-7.168-1.146-8.92 0 0 .965 5.969 2.761 9.605h.002a8.153 8.153 0 0 0 7.181 4.33c2.26 0 4.377-.943 5.914-2.575-2.855-1.671-5.396-4.313-7.443-7.681 2.82 2.42 6.106 3.813 9.62 3.813.128 0 .255-.013.384-.017.798-1.64 1.183-2.972 1.188-2.993l.072-.257.008-.005c.391-1.065 1.319-1.797 2.296-1.797.204 0 .403.032.597.096.919.296 1.492 1.234 1.46 2.332l.023.028-.055.345c-.05.314-.105.615-.161.92 5.092-1.181 9.156-6.809 10.634-12.524l-.006-.003c.086-.195.136-.406.136-.631zM34.926 51.859a2.874 2.874 0 1 1 .001-5.747 2.874 2.874 0 0 1-.001 5.747zm30.151 0a2.873 2.873 0 0 1-2.872-2.875 2.873 2.873 0 1 1 5.743 0 2.873 2.873 0 0 1-2.871 2.875z"></path></g><!----></svg>